# xmcd
#
# Track frame offsets: 
#        150
#        22973
#        40332
#        60967
#        79640
#        99085
#        126486
#        147296
#        168075
#        194357
#        211687
#        229728
#        246718
#
# Disc length: 3531 seconds
#
# Revision: 0
# Processed by: cddbd v1.5.2PL0 Copyright (c) Steve Scherf et al.
# Submitted via: ExactAudioCopy v0.95b4
#
DISCID=a60dc90d
DTITLE=The Kiki Dee Band  - I've Got The Music In Me 
DYEAR=1900
DGENRE=
TTITLE0=I've Got The Music In Me
TTITLE1=Someone To Me
TTITLE2=Step By Step
TTITLE3=Water
TTITLE4=Out Of My Head
TTITLE5=Do It Right
TTITLE6=Little Frozen One
TTITLE7=Heart And Soul
TTITLE8=You Need Help
TTITLE9=Hard Luck Story
TTITLE10=Everyone Should Have Their Way
TTITLE11=Simple Melody
TTITLE12=How Glad I Am
EXTD=
EXTT0=
EXTT1=
EXTT2=
EXTT3=
EXTT4=
EXTT5=
EXTT6=
EXTT7=
EXTT8=
EXTT9=
EXTT10=
EXTT11=
EXTT12=
PLAYORDER=
